<svg version="1.1" xmlns="http://www.w3.org/2000/svg" viewBox="0 0 1349.6001164251916 1105.66953249601">
  <!-- svg-source:excalidraw -->
  <defs>
    <style>
      @font-face {
        font-family: "Virgil";
        src: url("https://excalidraw.com/FG_Virgil.woff2");
      }
      @font-face {
        font-family: "Cascadia";
        src: url("https://excalidraw.com/Cascadia.woff2");
      }
    </style>
  </defs>
  <rect x="0" y="0" width="1349.6001164251916" height="1105.66953249601" fill="#ffffff"></rect><g transform="translate(10 135.1930738304095) rotate(0 163.5012335526316 105.45435855263167)"><path d="M-1.1336799585354396 0.40089423973660476 C107.29647691448343 2.2789623699983528, 213.87045529003703 1.968802990678894, 328.35020289723815 -0.26551116840654004 M0.31737194506423416 -0.015034301062586394 C83.6062424705467 1.9950177153740953, 167.78936346272775 0.9645880501652545, 326.87185413685233 -0.11620164698201772 M326.7254788340184 0.9831951335595637 C325.5513598361689 73.56621349924272, 328.7451835961308 148.1729582181579, 327.05944319274806 210.01242306052654 M327.72259916329705 -0.4840393136089501 C327.6620249063756 53.36904625624576, 327.17338933522416 108.07705172332692, 326.67385338468154 210.05862062497323 M327.4694896335857 211.80068278638922 C227.23924022737012 208.13443309799888, 128.53828689421906 209.37007696296115, -0.7856797205590488 209.9373853744162 M327.50861709324187 210.4881414739044 C254.92929978088586 212.18508697327263, 182.12282704122777 212.31995542112583, -0.13808043182570978 210.99260378195183 M0.9645955975412918 210.79234325124546 C0.01520558600716182 165.77589790475386, -1.8172661178356972 119.37248058061992, -0.24345140860908682 0.8721722149756489 M-0.2955779015603228 210.45187920928126 C1.6620002465327162 143.22781519601472, 1.8001656642611985 74.93868666642274, 0.3259649412684017 -0.03117530271121455" style="stroke: rgb(0, 0, 0); stroke-width: 1; fill: none;"></path></g><g transform="translate(122.85359350079744 63.697293660287414) rotate(0 269.5 12)"><text x="0" y="19" font-family="Cascadia" font-size="20px" fill="#000000" text-anchor="start">process.env.REACT_APP_TEST = "https://someapi"</text></g><g transform="translate(500.2531482589049 168.9847737240857) rotate(0 190.139678030303 75.8951729465698)"><path d="M0.36898902944412676 -0.4101408843747657 C93.70727139920314 -0.5277750671651231, 188.48350991152765 -2.8523908721735287, 380.22541400890975 0.32332288968207734 M-0.09598487978233407 -0.4709258821385761 C80.97980486395836 -2.0520832422874866, 161.57713841762438 -2.452145916779768, 379.83008447918945 0.15803789532362086 M380.7341360170958 0.6832797192037106 C377.84798348583405 34.60701792729696, 379.56455231346314 70.74190344373982, 380.5995407421706 151.42510969647265 M379.5824129395751 -0.14139528386294842 C379.98224550806975 58.37818704221738, 378.36685526692366 116.19029752076352, 379.38327590754307 151.10527739198005 M380.12878117413015 151.53849442982508 C302.4244180283489 151.39835131507914, 222.88850874822916 151.3786484467279, 0.06509728148389457 152.80312517494184 M380.4818363733769 151.7243662923568 C230.315588865199 150.73782514593682, 81.80091343083126 150.49751962230894, -0.3959408493138156 152.09027126821744 M1.1388841606676579 150.86766548165178 C2.5480931575575587 102.2233028788246, 1.833044248370242 52.755663756222035, -0.5171268247067928 1.7710445784032345 M-0.7526049185544252 150.79832235247886 C0.27629916709471347 121.41061281362161, 0.27668117326307895 88.78772146629267, 0.5713560413569212 -0.07252766005694866" style="stroke: rgb(0, 0, 0); stroke-width: 1; fill: none;"></path></g><g transform="translate(17.763157894736707 203.1889619883018) rotate(0 152.5 12)"><text x="0" y="19" font-family="Cascadia" font-size="20px" fill="#c92a2a" text-anchor="start">process.env.REACT_APP_TEST</text></g><g transform="translate(149.42351973684202 105.02695540935702) rotate(0 23.5 12)"><text x="0" y="19" font-family="Cascadia" font-size="20px" fill="#000000" text-anchor="start">Code</text></g><g transform="translate(625.0287828947369 126.07958698830407) rotate(0 35 12)"><text x="0" y="19" font-family="Cascadia" font-size="20px" fill="#000000" text-anchor="start">Bundle</text></g><g><g transform="translate(691.7443347953215 44.83409755449202) rotate(0 66.12255365043347 -3.6525425612323943)"><path d="M-0.2934317506849766 0.555962685495615 C21.846197131053934 -0.31488777340241547, 110.01861978062158 -4.887574005166107, 131.88811392725307 -6.232222834425466 M1.2907697182707487 -1.094929352682084 C23.392822860983596 -2.3642783389877606, 110.5614613994091 -6.799793513884806, 132.53853905155188 -7.861047807960258" style="stroke: rgb(0, 0, 0); stroke-width: 1; fill: none;"></path></g><g transform="translate(691.7443347953215 44.83409755449202) rotate(0 66.12255365043347 -3.6525425612323943)"><path d="M105.82068545542137 3.9162413118350177 C112.20304085932743 -0.19741667897866577, 116.17579765084915 -1.3686896214548057, 132.27082988201505 -6.4503705202326636 M105.62627401932554 3.4818095298427014 C112.13622297840703 1.600757831414359, 118.88307206358084 -2.108045028562016, 132.31448410591906 -7.21732844959055" style="stroke: rgb(0, 0, 0); stroke-width: 1; fill: none;"></path></g><g transform="translate(691.7443347953215 44.83409755449202) rotate(0 66.12255365043347 -3.6525425612323943)"><path d="M104.79808966196337 -16.579472879893977 C111.23428362025889 -16.163911669843387, 115.4328926773175 -12.808465928737894, 132.27082988201505 -6.4503705202326636 M104.60367822586754 -17.013904661886293 C111.44044489764576 -13.967150770275174, 118.4328885596446 -12.753543147197703, 132.31448410591906 -7.21732844959055" style="stroke: rgb(0, 0, 0); stroke-width: 1; fill: none;"></path></g></g><g transform="translate(848.1636347022861 10) rotate(0 41 12)"><text x="0" y="19" font-family="Cascadia" font-size="20px" fill="#000000" text-anchor="start">Staging</text></g><g><g transform="translate(884.5764802631579 194.86001461988326) rotate(0 103.0082727923965 -11.383467511132267)"><path d="M0.21900020018219957 -0.6413370050489903 C34.219109173785704 -4.286636883504055, 170.33613301699884 -19.45095991436075, 204.41583717492853 -22.95711718417324 M1.0574164650030435 0.19018216190859683 C35.30047636264543 -3.7410634354309362, 172.00363749883974 -18.202116973303813, 205.7975453846108 -21.920127611994666" style="stroke: rgb(43, 138, 62); stroke-width: 1; fill: none;"></path></g><g transform="translate(884.5764802631579 194.86001461988326) rotate(0 103.0082727923965 -11.383467511132267)"><path d="M177.79904913538002 -9.330013158307793 C187.352767030954 -13.333929975773398, 198.4947684709313 -17.225013855201347, 207.61978141962996 -20.764481202155274 M178.33595282406412 -8.452056687833192 C186.3456430980255 -13.549875123754571, 196.13036482175426 -16.349879150263597, 206.04989176429322 -22.908033961817544" style="stroke: rgb(43, 138, 62); stroke-width: 1; fill: none;"></path></g><g transform="translate(884.5764802631579 194.86001461988326) rotate(0 103.0082727923965 -11.383467511132267)"><path d="M175.60104180142207 -29.733168947197573 C185.70567731090864 -26.914229542512103, 197.58312895203557 -23.978445832737822, 207.61978141962996 -20.764481202155274 M176.13794549010618 -28.855212476722972 C184.94172314649646 -27.6278494469581, 195.4086897909953 -24.09486759594287, 206.04989176429322 -22.908033961817544" style="stroke: rgb(43, 138, 62); stroke-width: 1; fill: none;"></path></g></g><g transform="translate(1172.858700473091 155.57383040935702) rotate(0 17.5 12)"><text x="0" y="19" font-family="Cascadia" font-size="20px" fill="#000000" text-anchor="start">UAT</text></g><g transform="translate(1171.6646215257235 204.22514619883032) rotate(0 47 12)"><text x="0" y="19" font-family="Cascadia" font-size="20px" fill="#000000" text-anchor="start">PREEPROD</text></g><g transform="translate(1169.6712004730919 251.44965277777874) rotate(0 58.5 12)"><text x="0" y="19" font-family="Cascadia" font-size="20px" fill="#000000" text-anchor="start">PRODUCTION</text></g><g transform="translate(1169.7123188941443 105.74652777777874) rotate(0 41 12)"><text x="0" y="19" font-family="Cascadia" font-size="20px" fill="#000000" text-anchor="start">Staging</text></g><g><g transform="translate(277.0888157894737 198.91593567251448) rotate(0 140.87133358973668 1.5670859159479278)"><path d="M0.11902190074324603 -0.2938292227685452 C47.071941562532864 0.2685498919011329, 235.36791917800642 3.7135658899551496, 282.1567587921886 4.3679669467635 M-0.41409161271527406 -1.3562373789958657 C46.51713930345646 -0.7612979843607871, 234.0665357191648 3.472624147464172, 281.07264954320397 4.4904092108919755" style="stroke: rgb(43, 138, 62); stroke-width: 1; fill: none;"></path></g><g transform="translate(277.0888157894737 198.91593567251448) rotate(0 140.87133358973668 1.5670859159479278)"><path d="M252.17319883355586 15.077509097005521 C262.42887973976326 9.630720361776866, 270.7660435840726 7.049241299288896, 282.0789586613258 4.037850071312441 M252.68226954849152 14.429989756266867 C258.9843124738805 11.982159122544253, 265.1916785959367 9.460780128000133, 280.4485468184879 4.427784441606654" style="stroke: rgb(43, 138, 62); stroke-width: 1; fill: none;"></path></g><g transform="translate(277.0888157894737 198.91593567251448) rotate(0 140.87133358973668 1.5670859159479278)"><path d="M252.62476422553948 -5.438730594580321 C262.89833692267644 -3.9792353729712966, 271.0835023199145 0.3451216366178791, 282.0789586613258 4.037850071312441 M253.13383494047514 -6.086249935318975 C259.2761910462078 -3.8989734470066035, 265.3815536634378 -1.7859663890567932, 280.4485468184879 4.427784441606654" style="stroke: rgb(43, 138, 62); stroke-width: 1; fill: none;"></path></g></g><g transform="translate(564.9218749999995 190.5220211988294) rotate(0 152.5 12)"><text x="0" y="19" font-family="Cascadia" font-size="20px" fill="#2b8a3e" text-anchor="start">process.env.REACT_APP_TEST</text></g><g><g transform="translate(324.18338815789474 224.4274488304095) rotate(0 98.15880442676686 14.525314525411204)"><path d="M-0.9023335419595242 1.0575960718095303 C32.07409233328139 5.443268851410812, 164.38011028450904 22.56478866225216, 197.39145360970113 26.85068803487102 M-1.073844756167382 1.0197750443033873 C31.716711814535763 5.848248481057798, 162.22077009676946 23.534586284943998, 195.1326348606794 28.030854006518965" style="stroke: rgb(201, 42, 42); stroke-width: 1; fill: none;"></path></g><g transform="translate(324.18338815789474 224.4274488304095) rotate(0 98.15880442676686 14.525314525411204)"><path d="M167.57773772883633 35.75994645253875 C174.38480838514462 33.94310911182544, 181.90939275467824 29.531273926116995, 194.1053270858078 26.857253180106525 M165.71992598916808 35.32946092643895 C177.2713791821515 31.97215177194217, 187.31484366441325 29.51714611735818, 195.27400370988238 28.04657388407493" style="stroke: rgb(201, 42, 42); stroke-width: 1; fill: none;"></path></g><g transform="translate(324.18338815789474 224.4274488304095) rotate(0 98.15880442676686 14.525314525411204)"><path d="M170.3470357603623 15.426452143925047 C176.52204562295177 18.897355460453667, 183.32363588777804 19.794084519499883, 194.1053270858078 26.857253180106525 M168.48922402069405 14.995966617825246 C178.89569554950685 18.898229472521336, 187.95405034784147 23.676364463494636, 195.27400370988238 28.04657388407493" style="stroke: rgb(201, 42, 42); stroke-width: 1; fill: none;"></path></g></g><g transform="translate(1143.859984846243 71.60261330409003) rotate(0 97.87006578947432 119.28042763158078)"><path d="M-0.2638351060450077 0.4155961014330387 C56.41626732028432 -0.9292767350087106, 111.54006100027576 -2.254478842438215, 196.09555475747243 0.6322505213320255 M-0.41099907271564007 0.663760943338275 C52.910956417930684 -0.38154652933191713, 104.28709777588658 -0.0185928068549579, 195.15344596801356 0.09887455217540264 M194.0823817965933 -1.219955207810427 C194.11607321044838 89.90219081278259, 197.3296474290064 179.58815785393367, 194.43990937829963 240.00537099697672 M195.04872602836716 -0.291523277704908 C196.93130861751553 81.75293933557707, 197.1220979362653 163.3360791477976, 195.10077028353442 238.3810692236725 M194.04871921574727 240.3946711693584 C149.6802099123944 239.90985372400823, 104.38503053457862 238.55195966101232, -1.8843565322458744 238.78668722255816 M196.6695252150114 239.32106164774586 C125.83700564044524 239.74060339599473, 55.63643072225116 239.28158522516114, 0.28120725043118 238.71604082665135 M0.16730812999451056 238.47939128087165 C-2.9722913428977185 143.49992042206296, -3.0392086087808057 47.958532738164536, 1.2144966980618728 -1.110055670699243 M0.5648518658885816 238.9520674592438 C-0.6154755179204765 143.34133859515455, -0.5215901763652773 49.193989854877174, -0.395260612812583 -0.576543082914202" style="stroke: rgb(43, 138, 62); stroke-width: 1; fill: none;"></path></g><g><g transform="translate(874.7813912147794 254.30355362838918) rotate(0 71.56643207006118 -1.0657870768652629)"><path d="M-0.8591911040246487 0.38621762618422517 C22.985794244157002 -0.13209619730056743, 118.7274674760636 -2.2477424338132854, 142.82043179763392 -2.573031812718 M0.3444681373424827 0.44145765898749234 C24.125270525133086 0.16746279938800707, 120.4083852149073 -1.8275707091250235, 143.99205524414688 -1.8776451852711398" style="stroke: rgb(201, 42, 42); stroke-width: 1; fill: none;"></path></g><g transform="translate(874.7813912147794 254.30355362838918) rotate(0 71.56643207006118 -1.0657870768652629)"><path d="M116.57816762557277 8.59349351378448 C122.22083343079507 7.292941858090337, 131.73397929278264 4.441245924533288, 143.73667160734445 -1.5011772756072241 M115.35364647476027 9.733022643274737 C125.67628691924685 4.983644884892975, 133.67257618919936 2.224358826427671, 144.93469785652965 -1.5761028566005189" style="stroke: rgb(201, 42, 42); stroke-width: 1; fill: none;"></path></g><g transform="translate(874.7813912147794 254.30355362838918) rotate(0 71.56643207006118 -1.0657870768652629)"><path d="M116.31636612263537 -11.926045037530443 C122.12392899764441 -7.495462353337604, 131.71017245090852 -4.617898426360538, 143.73667160734445 -1.5011772756072241 M115.09184497182287 -10.786515908040187 C125.62073824168567 -8.88473889758669, 133.70188349686947 -4.993162983424344, 144.93469785652965 -1.5761028566005189" style="stroke: rgb(201, 42, 42); stroke-width: 1; fill: none;"></path></g></g><g><g transform="translate(1061.0707236842106 229.79340277777783) rotate(0 -9.69210701586087 21.408696789030273)"><path d="M-0.7888014279305935 -0.23372763767838478 C-4.248771071891497 7.079428637066969, -17.537338798545353 35.85805497487132, -20.779627320680085 42.856642920759256 M1.4574104616232217 1.8003930145315827 C-2.2260045900859042 9.020271874835828, -17.41526348445197 36.19554157647361, -20.841624493344934 43.05112121573904" style="stroke: rgb(201, 42, 42); stroke-width: 1; fill: none;"></path></g></g><g><g transform="translate(1032.7771381578948 239.5055738304095) rotate(0 19.613478402649775 15.156734067983052)"><path d="M-0.22167451009154315 1.1497233711183072 C6.278103575332647 6.4593405838990146, 32.90510376206878 26.071977330338918, 39.27414988338164 31.218954925199704 M0.6611468854732814 -0.9786913192458451 C7.115992346199787 4.1681991115705594, 33.04407739290315 25.968111336254296, 39.44863131539113 31.292159455211568" style="stroke: rgb(201, 42, 42); stroke-width: 1; fill: none;"></path></g></g><g transform="translate(529.3184891679962 241.61965875863507) rotate(0 164 12)"><text x="0" y="19" font-family="Cascadia" font-size="20px" fill="#c92a2a" text-anchor="start">https://some/envspecific/api</text></g><g transform="translate(852.8476874003227 117.70078249600965) rotate(0 105.5 12)"><text x="0" y="19" font-family="Cascadia" font-size="20px" fill="#087f5b" text-anchor="start">Inject params here</text></g><g transform="translate(376.9303894205206 164.87171052631356) rotate(0 35 12)"><text x="0" y="19" font-family="Cascadia" font-size="20px" fill="#000000" text-anchor="start">step 1</text></g><g transform="translate(923.2648275518338 76.50365497076018) rotate(0 35 12)"><text x="0" y="19" font-family="Cascadia" font-size="20px" fill="#000000" text-anchor="start">step 2</text></g><g><g transform="translate(412.57511795587453 201.643648657629) rotate(0 -1.3592367905333163 122.05457148809796)"><path d="M-0.38522448465228076 0.028901349753141403 C-0.7412628770852887 40.40246429830437, -2.019321147096556 202.46292891351607, -2.3332490964143293 243.14969147754582 M-1.1625932550989093 -0.7590168794430792 C-1.3229955795454287 39.83318384488692, -1.0142372948911302 204.17555872161043, -1.2740906271806671 244.8681598556389" style="stroke: rgb(8, 127, 91); stroke-width: 1; fill: none;"></path></g><g transform="translate(412.57511795587453 201.643648657629) rotate(0 -1.3592367905333163 122.05457148809796)"><path d="M-11.438273599793456 217.8216220840694 C-9.226151253908533 225.96119208741456, -4.663805653282612 232.3507351629007, 0.16301921944108466 243.59756613421933 M-11.317814220165156 216.51633612177088 C-8.883547008983072 222.91681049004404, -5.24602987988613 230.85814659558065, -1.1823457069418146 245.48720470528798" style="stroke: rgb(8, 127, 91); stroke-width: 1; fill: none;"></path></g><g transform="translate(412.57511795587453 201.643648657629) rotate(0 -1.3592367905333163 122.05457148809796)"><path d="M9.082904957893655 217.85673603232897 C5.475329347446898 225.92047118973562, 4.218242779101916 232.3000565895694, 0.16301921944108466 243.59756613421933 M9.203364337521956 216.55145007003046 C6.332084219441857 223.07841102821166, 4.664391000432112 231.0106693470536, -1.1823457069418146 245.48720470528798" style="stroke: rgb(8, 127, 91); stroke-width: 1; fill: none;"></path></g></g><g transform="translate(235.4278641679959 471.9668809808609) rotate(0 205 12)"><text x="0" y="19" font-family="Cascadia" font-size="20px" fill="#087f5b" text-anchor="start">Parse the Code, using babel parser </text></g><g transform="translate(233.87372906698573 514.1346524455093) rotate(0 269.5 12)"><text x="0" y="19" font-family="Cascadia" font-size="20px" fill="#087f5b" text-anchor="start">Determine the process.env type memberIdentfier</text></g><g transform="translate(232.21984649122777 565.3702900717658) rotate(0 433.5 48)"><text x="0" y="19" font-family="Cascadia" font-size="20px" fill="#087f5b" text-anchor="start">Replace them with template string</text><text x="0" y="43" font-family="Cascadia" font-size="20px" fill="#087f5b" text-anchor="start"></text><text x="0" y="67" font-family="Cascadia" font-size="20px" fill="#087f5b" text-anchor="start">e.g $$_INTERNAL_process.env.REACT_APP_PARAMMATHRANDOMSTART${Math.random()}</text><text x="0" y="91" font-family="Cascadia" font-size="20px" fill="#087f5b" text-anchor="start">MATHRANDOMEND$$_INTERNAL__</text></g><g transform="translate(197.54197401648054 461.2119883040941) rotate(0 456.86355744949486 120.29474431818176)"><path d="M0.42599278241395955 -0.1024000957608223 C333.24146504381997 2.6403337854789415, 667.6065543096205 1.6154721159385361, 913.0430437947614 0.0037277862429618835 M0.21422680243849757 0.14198050871491433 C359.0324354763188 3.6225220703899996, 718.4195734409707 3.2507667326748506, 913.7621828946275 -0.03278257474303246 M912.3194068646573 -0.9154158353063793 C914.9050336291883 67.92521112679854, 911.8582773765776 138.10914636900048, 914.2491289054508 239.42421875240933 M914.2180494663437 0.10339535370536933 C914.8319756767238 63.59717619193615, 914.871820379489 127.86328872580997, 914.1874673669848 240.9990529985421 M913.5422610665662 240.71014371256925 C548.6343060711157 242.34708497760647, 183.53153448630982 242.1048679613864, -0.5851856634020806 241.09233055453396 M913.5150961550873 240.63270172144865 C562.0260752700609 238.64345910106124, 209.84929422268087 238.59939999137345, -0.17536486759781839 240.35196482207274 M1.1563757347947652 241.33163589174274 C-0.5158727938582623 162.54072612342435, -0.6128900167165745 86.24874003003174, 0.12028030938146374 -0.20960166554641244 M0.5730880075584374 241.15178231923497 C-0.402117814270486 168.39131185495924, -1.461369500148618 96.22364324610649, 0.083556083744835 -0.08428944511580617" style="stroke: rgb(11, 114, 133); stroke-width: 1; fill: none;"></path></g><g transform="translate(505.4415952286019 404.03758805156804) rotate(0 105.5 12)"><text x="0" y="19" font-family="Cascadia" font-size="20px" fill="#087f5b" text-anchor="start">PHASE 1 (One-time)</text></g><g><g transform="translate(407.1560838649654 704.138440324296) rotate(0 -1.2425632563729891 80.99507118923339)"><path d="M0.7220332257449626 0.46583993509411803 C0.07182045835588335 27.500685153447495, -2.5771290084553775 134.68233213346653, -3.207159738490941 161.52430244337265 M-1.8183471223153174 0.6860587173141539 C-2.274497118503263 27.35493258559372, -2.9232530520131705 132.69862555524537, -3.1063231951432546 159.1050863795491" style="stroke: rgb(8, 127, 91); stroke-width: 1; fill: none;"></path></g><g transform="translate(407.1560838649654 704.138440324296) rotate(0 -1.2425632563729891 80.99507118923339)"><path d="M-12.40197153231715 132.4455695689398 C-7.803864416683826 142.74549250589683, -4.210719483609643 150.60640367288306, -4.0988443209665135 157.11782176499685 M-12.495366677927125 130.16849582984327 C-10.310333123558555 140.4531001138645, -6.272791963849996 150.82534352555103, -3.813320639996441 159.63142587137838" style="stroke: rgb(8, 127, 91); stroke-width: 1; fill: none;"></path></g><g transform="translate(407.1560838649654 704.138440324296) rotate(0 -1.2425632563729891 80.99507118923339)"><path d="M8.118779147519673 132.58266049430097 C5.374460093628216 142.95699859176298, 1.6243965605309425 150.76885272085357, -4.0988443209665135 157.11782176499685 M8.025384001909698 130.30558675520444 C3.284084361261449 140.4026017890003, 0.3960866618423271 150.72857844633486, -3.813320639996441 159.63142587137838" style="stroke: rgb(8, 127, 91); stroke-width: 1; fill: none;"></path></g></g><g transform="translate(232.41034522860156 672.6427016879265) rotate(0 299 12)"><text x="0" y="19" font-family="Cascadia" font-size="20px" fill="#087f5b" text-anchor="start">Give opportunity to 2nd phase to fill in env params</text></g><g transform="translate(218.74020633971207 909.1783708798439) rotate(0 345.5 12)"><text x="0" y="19" font-family="Cascadia" font-size="20px" fill="#087f5b" text-anchor="start">Replace the template strings added above with actual values</text></g><g transform="translate(220.5331356326414 955.9902395667168) rotate(0 123 12)"><text x="0" y="19" font-family="Cascadia" font-size="20px" fill="#087f5b" text-anchor="start">gzip the new content </text></g><g transform="translate(224.7501495215301 1014.9233203747981) rotate(0 94 12)"><text x="0" y="19" font-family="Cascadia" font-size="20px" fill="#087f5b" text-anchor="start">Start the server</text></g><g transform="translate(201.14045886496427 891.7631246677274) rotate(0 368.7855113636364 93.95320391414134)"><path d="M-0.5300909355282784 0.7804511144757271 C154.03922929530805 -0.8353409052175598, 308.44679873268734 -1.2317690611166077, 737.0673431820491 0.48467250615358354 M-0.370161696523428 -0.07525288239121437 C260.8652824536152 0.07089520080110318, 521.4872782700136 0.11704667193910367, 737.6416275798597 0.1668392263352871 M737.8823242380538 -1.1647730879485607 C735.0639331328875 50.110281423564274, 735.6889432656772 103.47458840700094, 736.3653868629851 186.6576028008276 M737.9139371986755 0.8244490828365088 C738.2324854946754 46.9020864318286, 738.0725521064422 93.10010608978065, 737.2072693581947 187.1675290622079 M737.4330940193751 187.5497489001864 C546.7672020038351 189.74373564353047, 355.9511802885882 190.39410619368613, -0.1416107013821602 187.4162414100283 M737.813218790225 187.75256259779272 C518.5732973337326 185.94129628869942, 299.45552324662515 185.5579204771226, -0.18009128198027613 187.5201353583747 M1.1379213742911816 188.50906623790797 C0.24704045665147767 139.77308625890407, 1.2837403477418707 89.38246226744897, 1.6763657741248608 -0.1477172188460827 M-0.29386614821851254 188.6935671724641 C0.862670659313153 117.30729652754938, -0.03368622135167243 46.40359080878213, -0.9324607159942389 -0.8112217579036951" style="stroke: rgb(24, 100, 171); stroke-width: 1; fill: none;"></path></g><g transform="translate(529.036450026581 846.9585160818688) rotate(0 41 12)"><text x="0" y="19" font-family="Cascadia" font-size="20px" fill="#087f5b" text-anchor="start">PHASE 2</text></g><g><g transform="translate(941.382124112951 941.7251554389254) rotate(0 147.74164634587328 -369.9228207841561)"><path d="M-0.8445056430995463 -1.1318980582058429 C48.51382998967828 -41.64493013051962, 273.63385267903675 -120.42156359165772, 295.05374807609087 -243.32079036029072 C316.473643473145 -366.2200171289237, 155.6609539504662 -655.7739087794021, 127.67486673922522 -738.5272586700038 M-0.8256824523769319 0.8823413131199778 C48.34785374347404 -39.41431065477123, 273.3785253658855 -117.08629671374202, 294.5824413447811 -240.68801741283403 C315.7863573236767 -364.28973811192606, 154.19841781971377 -657.8454763292007, 126.39781342099664 -740.7279828814321" style="stroke: rgb(8, 127, 91); stroke-width: 1; fill: none;"></path></g><g transform="translate(941.382124112951 941.7251554389254) rotate(0 147.74164634587328 -369.9228207841561)"><path d="M145.14633340976602 -718.0372185041019 C141.24840694390727 -723.4398736225116, 140.27254047906393 -728.8793957847274, 126.01488161112425 -741.2293772315138 M147.0751938971824 -718.0126304277042 C139.07733297498322 -727.294858779033, 132.4102572493662 -733.6270095482607, 127.07258331987319 -740.9101942115926" style="stroke: rgb(8, 127, 91); stroke-width: 1; fill: none;"></path></g><g transform="translate(941.382124112951 941.7251554389254) rotate(0 147.74164634587328 -369.9228207841561)"><path d="M126.3212854308768 -709.8679118641013 C126.36761760015565 -716.8425659115707, 129.31949429669112 -723.986569163261, 126.01488161112425 -741.2293772315138 M128.25014591829319 -709.8433237877035 C127.05988079296652 -722.1545425945626, 127.16354155744202 -731.4249181496307, 127.07258331987319 -740.9101942115926" style="stroke: rgb(8, 127, 91); stroke-width: 1; fill: none;"></path></g></g><g transform="translate(1171.6001164251916 1085.66953249601) rotate(0 84 10)"><text x="84" y="14" font-family="Virgil" font-size="16px" fill="#adb5bd" text-anchor="middle">Made with Excalidraw</text></g></svg>